<svg width="99" height="99" viewBox="0 0 99 99" fill="none" xmlns="http://www.w3.org/2000/svg">
<circle cx="48.944" cy="50.0561" r="48.944" fill="#3BAFE9"/>
<path d="M65.627 76.1314C66.8628 78.2764 66.1319 81.0432 63.8479 81.9992C59.1544 83.9638 54.0797 84.9173 48.9585 84.7752C42.3376 84.5917 35.8969 82.5843 30.3485 78.975C24.8001 75.3658 20.3601 70.2953 17.5194 64.3241C15.3225 59.7061 14.1483 54.6885 14.0547 49.6109C14.0091 47.1374 16.2478 45.353 18.7112 45.6154C21.1785 45.8782 22.9266 48.0993 23.0765 50.5726C23.2838 53.9939 24.1457 57.3582 25.6304 60.4791C27.7609 64.9575 31.0909 68.7604 35.2522 71.4673C39.4135 74.1742 44.2441 75.6798 49.2097 75.8175C52.6743 75.9135 56.1106 75.3411 59.3341 74.1466C61.6561 73.2863 64.3912 73.9864 65.627 76.1314Z" fill="white"/>
<path d="M37.5197 63.3605C39.8587 63.3605 41.7542 61.4688 41.7542 59.1343V46.5528H47.5817V59.1376C47.5817 61.4721 49.4772 63.3639 51.8162 63.3639C54.1553 63.3639 56.0507 61.4721 56.0507 59.1376V21.5509C56.0507 19.2165 54.1553 17.3247 51.8162 17.3247C49.4772 17.3247 47.5817 19.2165 47.5817 21.5509V38.1004H41.7542V29.6848C41.7542 27.3503 39.8587 25.4585 37.5197 25.4585C35.1806 25.4585 33.2852 27.3503 33.2852 29.6848V59.1343C33.2852 61.4688 35.1806 63.3605 37.5197 63.3605Z" fill="white"/>
<path d="M62.778 63.3582C65.117 63.3582 67.0125 61.4665 67.0125 59.132V33.5934C67.0125 31.2589 65.117 29.3672 62.778 29.3672C60.4389 29.3672 58.5435 31.2589 58.5435 33.5934V59.132C58.5435 61.4665 60.4423 63.3582 62.778 63.3582Z" fill="white"/>
<path d="M62.778 26.9278C65.117 26.9278 67.0125 25.0361 67.0125 22.7016V21.5075C67.0125 19.173 65.117 17.2812 62.778 17.2812C60.4389 17.2812 58.5435 19.173 58.5435 21.5075V22.7016C58.5435 25.0361 60.4423 26.9278 62.778 26.9278Z" fill="white"/>
</svg>
