<svg width="25" height="24" viewBox="0 0 25 24" fill="none" xmlns="http://www.w3.org/2000/svg">
<path fill-rule="evenodd" clip-rule="evenodd" d="M5.5 3.02405C5.5 3.02405 5.7425 3.44905 6.061 4.09305C6.4995 4.97805 7.0825 6.27755 7.3785 7.45355C7.4275 7.64805 7.4685 7.83855 7.5 8.02355V15.5235H8.5V12.85C8.18 12.2545 8 11.546 8 10.738C8 8.94555 9.5875 7.64355 10.918 6.55305C11.2243 6.30704 11.5239 6.05278 11.8165 5.79055C11.88 5.73205 11.9415 5.67455 12 5.61705V4.02405H13V5.61705C13.0585 5.67455 13.12 5.73205 13.1835 5.79055C13.45 6.03505 13.7585 6.28805 14.082 6.55305C15.412 7.64355 17 8.94555 17 10.738C17 11.546 16.82 12.2545 16.5 12.85V15.524H17.5V8.02405C17.527 7.84205 17.5655 7.65155 17.614 7.45555C17.894 6.31905 18.4915 4.99555 18.94 4.09255C19.2575 3.45255 19.5 3.02405 19.5 3.02405C19.5 3.02405 19.7425 3.44905 20.061 4.09305C20.4995 4.97805 21.0825 6.27755 21.3785 7.45355C21.4275 7.64805 21.4685 7.83855 21.5 8.02355V21.0235H3.5V8.02355C3.527 7.84205 3.5655 7.65155 3.614 7.45555C3.894 6.31905 4.4915 4.99555 4.94 4.09255C5.2575 3.45255 5.5 3.02405 5.5 3.02405ZM14.5 20.024V19.76C14.5 19.5743 14.4483 19.3922 14.3506 19.2342C14.2529 19.0762 14.1132 18.9486 13.947 18.8655L12.5 18.142L11.053 18.8655C10.8868 18.9486 10.7471 19.0762 10.6494 19.2342C10.5517 19.3922 10.5 19.5743 10.5 19.76V20.024H14.5ZM15.5 20.024H17.5V16.524H7.5V20.024H9.5V19.76C9.49997 19.3886 9.60337 19.0245 9.79863 18.7085C9.99389 18.3925 10.2733 18.1372 10.6055 17.971L12.5 17.024L14.3945 17.971C14.7267 18.1372 15.0061 18.3925 15.2014 18.7085C15.3966 19.0245 15.5 19.3886 15.5 19.76V20.024ZM18.5 8.25805C18.904 8.16055 19.202 8.11155 19.5 8.11155C19.798 8.11155 20.096 8.16055 20.5 8.25805V20.024H18.5V8.25805V8.25805ZM4.5 8.25805V20.024H6.5V8.25805C6.096 8.16055 5.798 8.11155 5.5 8.11155C5.202 8.11155 4.904 8.16055 4.5 8.25805V8.25805ZM4.728 7.18705C4.926 6.55705 5.209 5.87055 5.4995 5.23905C5.781 5.85505 6.0605 6.53755 6.2635 7.18555C6.01172 7.13816 5.7562 7.1134 5.5 7.11155C5.246 7.11155 4.995 7.13855 4.728 7.18655V7.18705ZM9.4655 12.524C9.1745 12.051 9 11.458 9 10.738C9 10.1575 9.2525 9.60205 9.733 9.01705C10.223 8.42055 10.872 7.88405 11.552 7.32655L11.5655 7.31505C11.882 7.05555 12.2105 6.78655 12.5 6.52055C12.7895 6.78655 13.118 7.05555 13.4345 7.31555L13.448 7.32655C14.128 7.88405 14.7775 8.42055 15.267 9.01655C15.747 9.60155 16 10.1575 16 10.738C16 11.458 15.825 12.051 15.535 12.524H9.465H9.4655ZM9.5 13.524V15.524H10V15.024C10 14.8914 10.0527 14.7643 10.1464 14.6705C10.2402 14.5767 10.3674 14.524 10.5 14.524C10.6326 14.524 10.7598 14.5767 10.8536 14.6705C10.9473 14.7643 11 14.8914 11 15.024V15.524H12V15.024C12 14.8914 12.0527 14.7643 12.1464 14.6705C12.2402 14.5767 12.3674 14.524 12.5 14.524C12.6326 14.524 12.7598 14.5767 12.8536 14.6705C12.9473 14.7643 13 14.8914 13 15.024V15.524H14V15.024C14 14.8914 14.0527 14.7643 14.1464 14.6705C14.2402 14.5767 14.3674 14.524 14.5 14.524C14.6326 14.524 14.7598 14.5767 14.8536 14.6705C14.9473 14.7643 15 14.8914 15 15.024V15.524H15.5V13.524H9.5V13.524ZM19.5 5.23905C19.209 5.87055 18.926 6.55705 18.728 7.18705C18.9825 7.13872 19.2409 7.11345 19.5 7.11155C19.751 7.11155 20 7.13805 20.2635 7.18505C20.0605 6.53755 19.781 5.85505 19.4995 5.23905H19.5Z" fill="#184781"/>
</svg>
