<svg width="20" height="19" viewBox="0 0 20 19" fill="none" xmlns="http://www.w3.org/2000/svg">
<path d="M7.91667 8.70833V9.20833H8.41667H10.95C11.5025 9.20833 12.0324 8.98884 12.4231 8.59814C12.8138 8.20744 13.0333 7.67753 13.0333 7.125C13.0333 6.57247 12.8138 6.04256 12.4231 5.65186C12.0324 5.26116 11.5025 5.04167 10.95 5.04167H8.41667H7.91667V5.54167V8.70833ZM8.41667 11.375H7.91667V11.875V16.125H5.75V2.875H10.7917C13.1365 2.875 15.0417 4.77335 15.0417 7.125C15.0417 8.25217 14.5939 9.33317 13.7969 10.1302C12.9998 10.9272 11.9188 11.375 10.7917 11.375H8.41667Z" stroke="#184781"/>
</svg>
