<svg width="25" height="24" viewBox="0 0 25 24" fill="none" xmlns="http://www.w3.org/2000/svg">
<g clip-path="url(#clip0_471_2786)">
<path d="M6.72816 7.75685L6.72816 7.75658C6.72793 7.59021 6.69493 7.42552 6.63104 7.27192C6.56714 7.11831 6.47361 6.9788 6.35578 6.86136C6.23795 6.74391 6.09814 6.65083 5.94432 6.58744C5.79051 6.52405 5.62571 6.49158 5.45935 6.4919L5.45772 6.4919C5.29148 6.49167 5.12683 6.5242 4.97317 6.58763C4.81951 6.65106 4.67985 6.74414 4.56217 6.86156C4.4445 6.97898 4.35111 7.11844 4.28735 7.27196C4.22358 7.42549 4.1907 7.59007 4.19056 7.75631L4.19056 7.75698C4.1902 7.92381 4.22273 8.08908 4.28629 8.24332C4.34985 8.39757 4.44319 8.53777 4.56098 8.65592C4.67877 8.77406 4.8187 8.86782 4.97275 8.93184C5.12679 8.99585 5.29194 9.02888 5.45875 9.02902L6.72816 7.75685ZM6.72816 7.75685C6.72848 7.9238 6.69587 8.08917 6.6322 8.24351C6.56853 8.39784 6.47505 8.5381 6.35711 8.65626C6.23917 8.77443 6.09909 8.86817 5.94487 8.93213C5.79079 8.99604 5.62562 9.02897 5.45881 9.02902L6.72816 7.75685ZM23.08 15.3601V14.8601H22.58H2.42H1.92V15.3601V18.7001H1V5.59686C1 5.31932 1.20914 5.1167 1.46 5.1167C1.71198 5.1167 1.92 5.31897 1.92 5.59686V13.4401V13.9401H2.42H24V18.7001H23.08V15.3601ZM8.18 11.0601H8.68V10.5601V7.8303C8.68 7.64135 8.85559 7.45428 9.07169 7.44959L9.14837 7.4528L23.0278 8.81069C23.6385 8.88636 23.9892 9.24101 23.9933 9.66475C23.9933 9.66517 23.9933 9.6656 23.9933 9.66603L23.9986 11.5001H4.60256C4.43176 11.5001 4.32946 11.458 4.28294 11.423C4.26226 11.4074 4.25112 11.3927 4.24384 11.3778C4.23646 11.3627 4.22608 11.3332 4.22608 11.2796C4.22608 11.2291 4.23597 11.2007 4.24341 11.1856C4.25083 11.1705 4.26251 11.155 4.2841 11.1387C4.33192 11.1025 4.43469 11.0601 4.60256 11.0601H8.18Z" stroke="#184781"/>
</g>
<defs>
<clipPath id="clip0_471_2786">
<rect width="24" height="24" fill="white" transform="translate(0.5)"/>
</clipPath>
</defs>
</svg>
