<svg width="22" height="21" viewBox="0 0 22 21" fill="none" xmlns="http://www.w3.org/2000/svg">
<path d="M2.85797 1.95813L17.9694 17.0695C18.2561 17.3563 18.4172 17.7452 18.4172 18.1507C18.4172 18.5562 18.2561 18.9451 17.9694 19.2319C17.6825 19.5185 17.2937 19.6795 16.8882 19.6795C16.4827 19.6795 16.0938 19.5185 15.807 19.2319L12.1156 15.4769C11.874 15.2316 11.7385 14.9012 11.7383 14.5569V14.3301C11.7383 14.1562 11.7038 13.9841 11.6368 13.8237C11.5697 13.6633 11.4715 13.5179 11.3478 13.3957L10.8712 12.9556C10.7094 12.8064 10.5127 12.7002 10.2991 12.6468C10.0855 12.5935 9.8619 12.5948 9.64892 12.6505C9.31307 12.7381 8.96014 12.7365 8.62515 12.6456C8.29016 12.5547 7.98475 12.3778 7.73924 12.1325L4.23527 8.62809C2.1566 6.54942 1.39166 3.41049 2.85797 1.95813Z" stroke="#184781" stroke-linejoin="round"/>
<path d="M8.70314 15.0938L4.61306 19.2068C4.3054 19.5144 3.88818 19.6871 3.45314 19.6871C3.01811 19.6871 2.60088 19.5144 2.29322 19.2068V19.2068C1.98565 18.8991 1.81287 18.4819 1.81287 18.0469C1.81287 17.6118 1.98565 17.1946 2.29322 16.887L5.75002 13.4531M16.9063 1.3125L13.7378 4.48096C13.494 4.72472 13.3006 5.01412 13.1686 5.33264C13.0367 5.65116 12.9688 5.99255 12.9688 6.33732V6.94682C12.9688 7.03305 12.9518 7.11844 12.9188 7.19811C12.8858 7.27778 12.8374 7.35016 12.7764 7.41111L12.3125 7.875L16.9063 1.3125ZM13.625 9.1875L14.0889 8.72361C14.1499 8.66262 14.2222 8.61423 14.3019 8.58122C14.3816 8.54822 14.467 8.53124 14.5532 8.53125H15.1627C15.5075 8.53125 15.8489 8.46334 16.1674 8.33138C16.4859 8.19943 16.7753 8.00602 17.0191 7.76221L20.1875 4.59375L13.625 9.1875ZM18.5469 2.95312L15.2656 6.23438L18.5469 2.95312Z" stroke="#184781" stroke-linecap="round" stroke-linejoin="round"/>
</svg>
