<svg width="22" height="21" viewBox="0 0 22 21" fill="none" xmlns="http://www.w3.org/2000/svg">
<path d="M10.1797 5.25C10.1797 5.38054 10.1278 5.50573 10.0355 5.59803C9.94323 5.69033 9.81804 5.74219 9.6875 5.74219H8.375C8.24446 5.74219 8.11927 5.69033 8.02697 5.59803C7.93467 5.50573 7.88281 5.38054 7.88281 5.25C7.88281 5.11946 7.93467 4.99427 8.02697 4.90197C8.11927 4.80967 8.24446 4.75781 8.375 4.75781H9.6875C9.81804 4.75781 9.94323 4.80967 10.0355 4.90197C10.1278 4.99427 10.1797 5.11946 10.1797 5.25ZM14.3633 16.1273L14.6586 18.2109C14.6823 18.3739 14.6711 18.5401 14.6259 18.6985C14.5806 18.8568 14.5023 19.0038 14.3961 19.1297C14.2865 19.2522 14.1526 19.3505 14.0029 19.4183C13.8531 19.4861 13.6909 19.5219 13.5266 19.5234H8.47344C8.30908 19.5219 8.14685 19.4861 7.99713 19.4183C7.8474 19.3505 7.71347 19.2522 7.60391 19.1297C7.49768 19.0038 7.41936 18.8568 7.37412 18.6985C7.32887 18.5401 7.31772 18.3739 7.34141 18.2109L7.63672 16.1273C6.33524 15.4933 5.23781 14.5068 4.46922 13.2799C3.70064 12.0531 3.29175 10.6352 3.28906 9.1875C3.28906 9.05696 3.34092 8.93177 3.43322 8.83947C3.52552 8.74717 3.65071 8.69531 3.78125 8.69531H5.25781V3.28125C5.25781 2.97667 5.37881 2.68456 5.59418 2.46918C5.80956 2.25381 6.10167 2.13281 6.40625 2.13281H15.5938C15.8983 2.13281 16.1904 2.25381 16.4058 2.46918C16.6212 2.68456 16.7422 2.97667 16.7422 3.28125V8.69531H18.2188C18.3493 8.69531 18.4745 8.74717 18.5668 8.83947C18.6591 8.93177 18.7109 9.05696 18.7109 9.1875C18.7083 10.6352 18.2994 12.0531 17.5308 13.2799C16.7622 14.5068 15.6648 15.4933 14.3633 16.1273ZM6.24219 8.69531H15.7578V3.28125C15.7578 3.23774 15.7405 3.19601 15.7098 3.16524C15.679 3.13447 15.6373 3.11719 15.5938 3.11719H6.40625C6.36274 3.11719 6.32101 3.13447 6.29024 3.16524C6.25947 3.19601 6.24219 3.23774 6.24219 3.28125V8.69531ZM13.4199 16.5047C11.8493 17.0294 10.1507 17.0294 8.58008 16.5047L8.30937 18.3504C8.30631 18.3739 8.30839 18.3979 8.31547 18.4205C8.32255 18.4432 8.33446 18.464 8.35039 18.4816C8.36481 18.5004 8.38351 18.5153 8.40492 18.5253C8.42633 18.5353 8.44983 18.54 8.47344 18.5391H13.5266C13.5502 18.54 13.5737 18.5353 13.5951 18.5253C13.6165 18.5153 13.6352 18.5004 13.6496 18.4816C13.6655 18.464 13.6775 18.4432 13.6845 18.4205C13.6916 18.3979 13.6937 18.3739 13.6906 18.3504L13.4199 16.5047ZM17.7102 9.67969H4.28984C4.40869 11.3783 5.16729 12.9685 6.4126 14.1298C7.65792 15.291 9.29728 15.9367 11 15.9367C12.7027 15.9367 14.3421 15.291 15.5874 14.1298C16.8327 12.9685 17.5913 11.3783 17.7102 9.67969Z" fill="#184781"/>
</svg>
